<!DOCTYPE svg PUBLIC "-//W3C//DTD SVG 20010904//EN" "http://www.w3.org/TR/2001/REC-SVG-20010904/DTD/svg10.dtd">
<svg version="1.0" xmlns="http://www.w3.org/2000/svg" width="627px" height="994px" viewBox="0 0 6270 9940" preserveAspectRatio="xMidYMid meet">
<g id="layer1" fill="#FB5757" stroke="none">
 <path d="M3270 9592 c0 -15 -4 -32 -10 -38 -5 -5 -13 -72 -17 -147 -3 -76 -10 -140 -15 -143 -4 -3 -8 -24 -8 -48 0 -23 -4 -46 -10 -52 -5 -5 -12 -60 -16 -122 -4 -62 -11 -115 -16 -118 -4 -3 -8 -22 -8 -43 0 -20 -5 -42 -10 -47 -6 -6 -13 -51 -16 -100 -3 -49 -8 -96 -12 -104 -9 -23 -33 -150 -38 -205 -3 -27 -9 -59 -13 -70 -13 -31 -32 -125 -38 -185 -3 -30 -9 -60 -13 -65 -5 -6 -12 -34 -16 -63 -4 -29 -11 -55 -15 -58 -5 -3 -9 -24 -9 -48 0 -23 -3 -46 -7 -50 -10 -10 -33 -98 -40 -151 -3 -22 -9 -44 -13 -50 -4 -5 -11 -30 -15 -55 -4 -25 -11 -49 -15 -55 -4 -5 -10 -26 -13 -45 -8 -57 -31 -140 -39 -140 -5 0 -8 -12 -8 -27 -1 -26 -27 -114 -41 -138 -4 -5 -10 -32 -14 -60 -5 -27 -9 -52 -11 -55 -1 -3 -5 -15 -9 -27 -4 -13 -11 -23 -15 -23 -4 0 -10 -21 -14 -47 -6 -49 -26 -103 -38 -103 -3 0 -9 -23 -13 -52 -4 -28 -16 -60 -26 -72 -11 -11 -19 -32 -19 -46 0 -14 -7 -35 -15 -46 -8 -10 -15 -26 -15 -35 0 -9 -7 -30 -15 -45 -8 -16 -15 -36 -15 -44 0 -8 -9 -26 -20 -40 -11 -14 -20 -32 -20 -40 0 -8 -14 -42 -30 -75 -16 -33 -30 -66 -30 -73 0 -7 -11 -30 -25 -52 -14 -22 -25 -46 -25 -54 0 -8 -22 -54 -50 -102 -27 -48 -50 -91 -50 -96 0 -5 -18 -36 -40 -69 -22 -33 -40 -62 -40 -65 0 -8 -104 -159 -112 -162 -5 -2 -8 -8 -8 -14 0 -38 -328 -360 -424 -415 -47 -28 -274 -232 -368 -332 -90 -96 -198 -227 -198 -240 0 -6 -6 -14 -14 -18 -7 -4 -32 -37 -55 -73 -22 -36 -44 -70 -48 -76 -14 -18 -35 -57 -77 -139 -22 -44 -44 -81 -48 -83 -5 -2 -8 -10 -8 -18 0 -8 -11 -35 -24 -62 -48 -94 -76 -158 -82 -192 -4 -19 -11 -37 -15 -40 -4 -3 -15 -37 -25 -75 -10 -39 -22 -72 -25 -75 -6 -5 -22 -47 -24 -65 -7 -61 -19 -115 -24 -115 -4 0 -15 -62 -25 -138 -9 -75 -20 -148 -23 -162 -12 -47 -14 -530 -3 -530 5 0 10 -19 10 -42 0 -59 28 -269 39 -293 5 -11 17 -58 27 -105 9 -47 21 -89 25 -95 3 -5 10 -26 15 -45 10 -42 9 -41 17 -60 3 -8 16 -44 28 -80 12 -36 28 -72 34 -80 6 -8 17 -35 24 -60 7 -25 21 -59 32 -76 10 -17 19 -37 19 -43 0 -7 11 -29 25 -49 14 -20 25 -42 25 -49 0 -7 16 -37 35 -67 19 -30 35 -57 35 -60 0 -3 22 -37 50 -76 27 -39 50 -73 50 -77 0 -4 18 -28 40 -54 22 -26 40 -52 40 -57 0 -4 11 -19 25 -32 14 -13 25 -27 25 -32 0 -13 76 -121 104 -147 14 -14 26 -28 26 -33 0 -12 55 -68 67 -68 5 0 20 -12 34 -26 26 -29 205 -174 214 -174 5 0 126 -80 135 -90 9 -9 84 -51 103 -57 9 -3 17 -9 17 -14 0 -4 17 -16 37 -25 21 -10 52 -28 69 -41 17 -13 36 -23 42 -23 6 0 23 -6 39 -14 15 -8 39 -19 53 -24 14 -5 50 -22 81 -36 31 -14 64 -26 73 -26 17 0 67 -19 108 -41 10 -5 28 -9 40 -9 22 0 128 -26 163 -40 11 -4 58 -13 105 -19 122 -16 154 -22 166 -32 16 -13 648 -12 652 1 2 5 26 10 52 10 27 0 51 4 55 9 3 5 36 12 73 16 37 3 76 10 87 15 43 18 120 40 142 40 13 0 23 3 23 8 0 9 45 29 85 37 32 7 65 19 107 41 14 8 35 14 46 14 12 0 24 4 27 10 3 5 23 17 43 26 20 8 44 20 52 25 8 4 31 16 50 25 19 8 42 20 50 25 8 5 23 12 33 15 9 4 17 10 17 15 0 5 5 9 12 9 6 0 19 6 27 14 9 8 36 25 61 38 68 36 90 51 120 78 39 35 58 50 65 50 3 0 13 7 23 15 9 9 53 46 96 83 44 37 105 94 135 126 140 150 161 173 161 182 0 4 10 18 23 29 12 11 29 30 37 41 8 12 34 47 58 77 23 31 42 61 42 67 0 5 5 10 10 10 6 0 10 5 10 10 0 6 18 35 40 65 22 30 40 60 40 68 0 7 11 24 25 37 14 13 25 34 25 47 0 13 3 23 8 23 4 0 12 9 17 19 6 11 31 59 56 108 92 176 89 171 89 187 0 7 7 19 15 26 8 7 15 23 15 35 0 20 13 61 40 120 5 11 11 34 14 50 8 52 31 133 39 141 4 4 7 27 7 51 0 25 5 53 10 63 6 10 13 67 17 125 3 58 10 108 15 111 11 7 10 508 -1 519 -5 6 -12 37 -14 70 -3 33 -8 74 -12 90 -3 17 -8 53 -11 80 -3 28 -8 57 -12 65 -7 17 -30 120 -39 168 -3 18 -9 35 -14 38 -5 3 -9 13 -9 22 0 9 -7 30 -15 46 -8 15 -15 37 -15 47 0 19 -2 26 -33 87 -9 19 -17 40 -17 48 0 8 -4 22 -10 32 -5 9 -16 35 -25 57 -9 22 -21 47 -26 55 -5 8 -12 23 -15 33 -4 9 -10 17 -15 17 -5 0 -9 11 -9 24 0 13 -7 29 -15 36 -8 7 -15 19 -15 26 0 8 -4 14 -10 14 -5 0 -10 5 -10 11 0 6 -10 25 -22 42 -26 36 -39 57 -65 107 -35 69 -173 258 -217 299 -14 14 -26 29 -26 34 0 7 -88 109 -138 159 -17 18 -188 169 -252 223 -117 99 -346 335 -373 383 -7 11 -42 65 -78 119 -36 54 -83 130 -104 168 -21 39 -43 77 -50 85 -7 8 -18 32 -24 52 -7 20 -19 42 -27 48 -7 7 -14 18 -14 24 0 10 -27 70 -86 188 -13 27 -24 57 -24 68 0 11 -4 20 -9 20 -5 0 -12 13 -16 30 -4 16 -11 32 -16 35 -5 4 -9 19 -9 34 0 16 -7 34 -15 41 -8 7 -15 19 -15 26 0 14 -4 23 -27 69 -6 12 -14 35 -17 53 -4 17 -12 34 -17 37 -5 4 -9 17 -9 29 0 13 -7 37 -15 52 -8 16 -15 37 -15 46 0 9 -4 20 -10 23 -5 3 -10 17 -10 29 0 21 -14 63 -40 121 -5 11 -12 39 -15 62 -4 24 -11 45 -16 49 -5 3 -9 16 -9 29 0 13 -4 26 -9 29 -4 3 -11 33 -15 66 -4 33 -11 60 -16 60 -6 0 -10 11 -10 24 0 14 -4 27 -9 30 -4 3 -11 31 -14 61 -3 31 -10 62 -15 68 -13 19 -30 87 -36 146 -3 30 -10 59 -16 65 -5 5 -10 20 -10 32 0 13 -4 25 -9 28 -4 3 -11 38 -15 78 -4 40 -11 77 -16 82 -6 6 -10 22 -10 37 0 15 -4 30 -9 33 -4 3 -11 40 -14 81 -3 42 -10 82 -15 88 -11 13 -18 51 -32 172 -5 44 -14 89 -19 100 -5 11 -12 40 -16 65 -3 25 -7 56 -9 70 -3 14 -7 59 -11 100 -4 41 -11 80 -15 85 -4 6 -15 80 -25 165 -9 85 -21 164 -26 175 -8 18 -21 144 -35 325 -5 72 -23 140 -36 140 -4 0 -8 -13 -8 -28z m150 -4423 c185 -22 391 -66 465 -98 11 -5 43 -17 70 -26 129 -45 360 -183 505 -300 228 -186 457 -476 561 -710 12 -27 30 -66 39 -85 10 -19 21 -46 25 -60 4 -14 13 -38 20 -55 20 -45 55 -168 76 -270 10 -49 23 -110 30 -135 16 -62 23 -435 11 -540 -20 -164 -63 -362 -93 -421 -4 -9 -20 -52 -34 -95 -14 -44 -37 -99 -51 -123 -13 -24 -24 -47 -24 -52 0 -5 -13 -31 -30 -57 -16 -27 -30 -54 -30 -60 0 -6 -11 -28 -25 -49 -14 -21 -30 -45 -35 -53 -108 -168 -206 -287 -338 -409 -54 -51 -109 -98 -120 -104 -12 -7 -45 -31 -74 -54 -29 -22 -69 -50 -88 -60 -19 -11 -60 -33 -90 -50 -197 -109 -433 -192 -680 -238 -152 -28 -504 -16 -670 24 -25 6 -69 16 -99 23 -51 11 -180 54 -286 94 -202 78 -540 327 -697 515 -20 24 -53 64 -74 89 -91 110 -207 308 -273 465 -18 44 -39 94 -47 110 -7 17 -18 53 -25 80 -6 28 -16 55 -21 62 -5 6 -18 56 -28 110 -11 54 -24 118 -30 143 -28 121 -21 625 10 703 4 12 16 65 25 117 10 52 21 100 25 105 4 6 13 32 19 59 7 28 20 68 30 90 10 23 22 52 26 66 20 66 152 308 220 403 193 269 505 544 725 637 14 6 52 24 85 40 33 16 74 32 90 36 17 4 35 10 40 14 6 3 39 15 75 24 36 10 74 22 85 27 29 12 172 39 207 39 16 0 38 5 48 10 11 6 88 14 172 19 84 4 162 9 173 10 11 0 58 -4 105 -10z"/>
 <path d="M1696 4042 c-3 -5 -1 -33 5 -63 5 -30 14 -88 19 -129 16 -137 36 -222 97 -419 86 -276 176 -408 393 -575 119 -92 211 -133 360 -162 166 -31 346 19 526 147 247 176 417 497 505 954 6 29 7 89 2 145 -8 89 -9 95 -33 101 -36 10 -1868 11 -1874 1z"/>
 <path d="M3767 3913 c-7 -125 -24 -204 -46 -211 -6 -2 -11 -16 -11 -30 0 -34 -40 -175 -75 -267 -49 -129 -150 -311 -254 -458 -52 -73 -53 -97 -3 -129 109 -73 225 -115 344 -126 203 -20 395 54 575 220 28 26 57 48 62 48 6 0 11 8 11 18 0 9 10 28 21 42 190 236 338 659 327 939 l-3 76 -471 3 -471 2 -6 -127z"/>
 <path d="M2578 2620 c-138 -25 -277 -141 -324 -272 -89 -246 42 -514 288 -589 81 -24 144 -24 227 1 189 56 313 223 314 425 1 77 -7 113 -47 206 -19 45 -96 131 -150 168 -78 53 -209 79 -308 61z"/>
 <path d="M3700 2620 c-89 -15 -145 -43 -216 -110 -250 -234 -156 -643 174 -752 215 -71 466 78 527 312 57 221 -58 452 -264 531 -56 21 -160 30 -221 19z"/>
 </g>
<g id="layer2" fill="none" stroke="none">
 <path d="M0 4970 l0 -4970 3135 0 3135 0 0 4970 0 4970 -3135 0 -3135 0 0 -4970z m3298 4613 c6 -21 13 -67 16 -103 14 -181 27 -307 35 -325 5 -11 17 -90 26 -175 10 -85 21 -159 25 -165 4 -5 11 -44 15 -85 4 -41 8 -86 11 -100 2 -14 6 -45 9 -70 4 -25 11 -54 16 -65 5 -11 14 -56 19 -100 14 -121 21 -159 32 -172 5 -6 12 -46 15 -88 3 -41 10 -78 14 -81 5 -3 9 -18 9 -33 0 -15 4 -31 10 -37 5 -5 12 -42 16 -82 4 -40 11 -75 15 -78 5 -3 9 -15 9 -28 0 -12 5 -27 10 -32 6 -6 13 -35 16 -65 6 -59 23 -127 36 -146 5 -6 12 -37 15 -68 3 -30 10 -58 14 -61 5 -3 9 -16 9 -30 0 -13 4 -24 10 -24 5 0 12 -27 16 -60 4 -33 11 -63 15 -66 5 -3 9 -16 9 -29 0 -13 4 -26 9 -29 5 -4 12 -25 16 -49 3 -23 10 -51 15 -62 26 -58 40 -100 40 -121 0 -12 5 -26 10 -29 6 -3 10 -14 10 -23 0 -9 7 -30 15 -46 8 -15 15 -39 15 -52 0 -12 4 -25 9 -29 5 -3 13 -20 17 -37 3 -18 11 -41 17 -53 23 -46 27 -55 27 -69 0 -7 7 -19 15 -26 8 -7 15 -25 15 -41 0 -15 4 -30 9 -34 5 -3 12 -19 16 -35 4 -17 11 -30 16 -30 5 0 9 -9 9 -20 0 -11 11 -41 24 -68 59 -118 86 -178 86 -188 0 -6 7 -17 14 -24 8 -6 20 -28 27 -48 6 -20 17 -44 24 -52 7 -8 29 -46 50 -85 21 -38 68 -114 104 -168 36 -54 71 -108 78 -119 27 -48 256 -284 373 -383 64 -54 235 -205 252 -223 50 -50 138 -152 138 -159 0 -5 12 -20 26 -34 44 -41 182 -230 217 -299 26 -50 39 -71 65 -107 12 -17 22 -36 22 -42 0 -6 5 -11 10 -11 6 0 10 -6 10 -14 0 -7 7 -19 15 -26 8 -7 15 -23 15 -36 0 -13 4 -24 9 -24 5 0 11 -8 15 -17 3 -10 10 -25 15 -33 5 -8 17 -33 26 -55 9 -22 20 -48 25 -57 6 -10 10 -24 10 -32 0 -8 8 -29 17 -48 31 -61 33 -68 33 -87 0 -10 7 -32 15 -47 8 -16 15 -37 15 -46 0 -9 4 -19 9 -22 5 -3 11 -20 14 -38 9 -48 32 -151 39 -168 4 -8 9 -37 12 -65 3 -27 8 -63 11 -80 4 -16 9 -57 12 -90 2 -33 9 -64 14 -70 11 -11 12 -512 1 -519 -5 -3 -12 -53 -15 -111 -4 -58 -11 -115 -17 -125 -5 -10 -10 -38 -10 -63 0 -24 -3 -47 -7 -51 -8 -8 -31 -89 -39 -141 -3 -16 -9 -39 -14 -50 -27 -59 -40 -100 -40 -120 0 -12 -7 -28 -15 -35 -8 -7 -15 -19 -15 -26 0 -16 3 -11 -89 -187 -25 -49 -50 -97 -56 -108 -5 -10 -13 -19 -17 -19 -5 0 -8 -10 -8 -23 0 -13 -11 -34 -25 -47 -14 -13 -25 -30 -25 -37 0 -8 -18 -38 -40 -68 -22 -30 -40 -59 -40 -65 0 -5 -4 -10 -10 -10 -5 0 -10 -5 -10 -10 0 -6 -19 -36 -42 -67 -24 -30 -50 -65 -58 -77 -8 -11 -25 -30 -37 -41 -13 -11 -23 -25 -23 -29 0 -9 -21 -32 -161 -182 -30 -32 -91 -89 -135 -126 -43 -37 -87 -74 -96 -83 -10 -8 -20 -15 -23 -15 -7 0 -26 -15 -65 -50 -30 -27 -52 -42 -120 -78 -25 -13 -52 -30 -61 -38 -8 -8 -21 -14 -27 -14 -7 0 -12 -4 -12 -9 0 -5 -8 -11 -17 -15 -10 -3 -25 -10 -33 -15 -8 -5 -31 -17 -50 -25 -19 -9 -42 -21 -50 -25 -8 -5 -32 -17 -52 -25 -20 -9 -40 -21 -43 -26 -3 -6 -15 -10 -27 -10 -11 0 -32 -6 -46 -14 -42 -22 -75 -34 -107 -41 -40 -8 -85 -28 -85 -37 0 -5 -10 -8 -23 -8 -22 0 -99 -22 -142 -40 -11 -5 -50 -12 -87 -15 -37 -4 -70 -11 -73 -16 -4 -5 -28 -9 -55 -9 -26 0 -50 -5 -52 -10 -4 -13 -636 -14 -652 -1 -12 10 -44 16 -166 32 -47 6 -94 15 -105 19 -35 14 -141 40 -163 40 -12 0 -30 4 -40 9 -41 22 -91 41 -108 41 -9 0 -42 12 -73 26 -31 14 -67 31 -81 36 -14 5 -38 16 -53 24 -16 8 -33 14 -39 14 -6 0 -25 10 -42 23 -17 13 -48 31 -69 41 -20 9 -37 21 -37 25 0 5 -8 11 -17 14 -19 6 -94 48 -103 57 -9 10 -130 90 -135 90 -9 0 -188 145 -214 174 -14 14 -29 26 -34 26 -12 0 -67 56 -67 68 0 5 -12 19 -26 33 -28 26 -104 134 -104 147 0 5 -11 19 -25 32 -14 13 -25 28 -25 32 0 5 -18 31 -40 57 -22 26 -40 50 -40 54 0 4 -23 38 -50 77 -28 39 -50 73 -50 76 0 3 -16 30 -35 60 -19 30 -35 60 -35 67 0 7 -11 29 -25 49 -14 20 -25 42 -25 49 0 6 -9 26 -19 43 -11 17 -25 51 -32 76 -7 25 -18 52 -24 60 -6 8 -22 44 -34 80 -12 36 -25 72 -28 80 -8 19 -7 18 -17 60 -5 19 -12 40 -15 45 -4 6 -16 48 -25 95 -10 47 -22 94 -27 105 -11 24 -39 234 -39 293 0 23 -5 42 -10 42 -11 0 -9 483 3 530 3 14 14 87 23 162 10 76 21 138 25 138 5 0 17 54 24 115 2 18 18 60 24 65 3 3 15 36 25 75 10 38 21 72 25 75 4 3 11 21 15 40 6 34 34 98 82 192 13 27 24 54 24 62 0 8 3 16 8 18 4 2 26 39 48 83 42 82 63 121 77 139 4 6 26 40 48 76 23 36 48 69 55 73 8 4 14 12 14 18 0 13 108 144 198 240 94 100 321 304 368 332 96 55 424 377 424 415 0 6 3 12 8 14 8 3 112 154 112 162 0 3 18 32 40 65 22 33 40 64 40 69 0 5 23 48 50 96 28 48 50 94 50 102 0 8 11 32 25 54 14 22 25 45 25 52 0 7 14 40 30 73 16 33 30 67 30 75 0 8 9 26 20 40 11 14 20 32 20 40 0 8 7 28 15 44 8 15 15 36 15 45 0 9 7 25 15 35 8 11 15 32 15 46 0 14 8 35 19 46 10 12 22 44 26 72 4 29 10 52 13 52 12 0 32 54 38 103 4 26 10 47 14 47 4 0 11 10 15 23 4 12 8 24 9 27 2 3 6 28 11 55 4 28 10 55 14 60 14 24 40 112 41 138 0 15 3 27 8 27 8 0 31 83 39 140 3 19 9 40 13 45 4 6 11 30 15 55 4 25 11 50 15 55 4 6 10 28 13 50 7 53 30 141 40 151 4 4 7 27 7 50 0 24 4 45 9 48 4 3 11 29 15 58 4 29 11 57 16 63 4 5 10 35 13 65 6 60 25 154 38 185 4 11 10 43 13 70 5 55 29 182 38 205 4 8 9 55 12 104 3 49 10 94 16 100 5 5 10 27 10 47 0 21 4 40 8 43 5 3 12 56 16 118 4 62 11 117 16 122 6 6 10 29 10 52 0 24 4 45 8 48 5 3 12 67 15 143 4 75 12 142 17 147 6 6 10 23 10 38 0 40 15 35 28 -9z"/>
 <path d="M3142 5169 c-84 -5 -161 -13 -172 -19 -10 -5 -32 -10 -48 -10 -35 0 -178 -27 -207 -39 -11 -5 -49 -17 -85 -27 -36 -9 -69 -21 -75 -24 -5 -4 -23 -10 -40 -14 -16 -4 -57 -20 -90 -36 -33 -16 -71 -34 -85 -40 -220 -93 -532 -368 -725 -637 -68 -95 -200 -337 -220 -403 -4 -14 -16 -43 -26 -66 -10 -22 -23 -62 -30 -90 -6 -27 -15 -53 -19 -59 -4 -5 -15 -53 -25 -105 -9 -52 -21 -105 -25 -117 -31 -78 -38 -582 -10 -703 6 -25 19 -89 30 -143 10 -54 23 -104 28 -110 5 -7 15 -34 21 -62 7 -27 18 -63 25 -80 8 -16 29 -66 47 -110 66 -157 182 -355 273 -465 21 -25 54 -65 74 -89 157 -188 495 -437 697 -515 106 -40 235 -83 286 -94 30 -7 74 -17 99 -23 166 -40 518 -52 670 -24 247 46 483 129 680 238 30 17 71 39 90 50 19 10 59 38 88 60 29 23 62 47 74 54 11 6 66 53 120 104 132 122 230 241 338 409 5 8 21 32 35 53 14 21 25 43 25 49 0 6 14 33 30 60 17 26 30 52 30 57 0 5 11 28 24 52 14 24 37 79 51 123 14 43 30 86 34 95 30 59 73 257 93 421 12 105 5 478 -11 540 -7 25 -20 86 -30 135 -21 102 -56 225 -76 270 -7 17 -16 41 -20 55 -4 14 -15 41 -25 60 -9 19 -27 58 -39 85 -104 234 -333 524 -561 710 -145 117 -376 255 -505 300 -27 9 -59 21 -70 26 -93 40 -485 114 -570 108 -11 -1 -89 -6 -173 -10z m428 -1128 c24 -6 25 -12 33 -101 8 -95 6 -113 -29 -275 -55 -260 -194 -542 -351 -715 -54 -60 -185 -155 -263 -192 -134 -64 -271 -86 -390 -64 -149 29 -241 70 -360 162 -217 167 -307 299 -393 575 -61 197 -81 282 -97 419 -5 41 -14 99 -19 129 -6 30 -8 58 -5 63 6 10 1838 9 1874 -1z m1148 -82 c11 -280 -137 -703 -327 -939 -11 -14 -21 -33 -21 -42 0 -10 -5 -18 -11 -18 -5 0 -34 -22 -62 -48 -100 -92 -208 -159 -308 -191 -203 -65 -419 -31 -611 97 -50 32 -49 56 3 129 104 147 205 329 254 458 35 92 75 233 75 267 0 14 5 28 11 30 22 7 39 86 46 211 l6 127 471 -2 471 -3 3 -76z m-1923 -1356 c168 -54 290 -230 288 -418 -1 -202 -125 -369 -314 -425 -83 -25 -146 -25 -227 -1 -283 86 -409 434 -243 674 113 165 306 231 496 170z m1126 -2 c206 -79 321 -310 264 -531 -61 -234 -312 -383 -527 -312 -247 82 -376 342 -288 581 43 117 141 220 250 261 87 32 216 33 301 1z"/>
 </g>

</svg>